<svg xmlns="http://www.w3.org/2000/svg" viewBox="88.0 88.0 450.4 124.9" fill="#054C37"><path class="cls-1" d="M180.62,164.07c0-11,10.11-20,24.17-20a27.66,27.66,0,0,1,19,7.48v-8.27c0-10-5.51-16-14.84-16-10.25,0-15.76,5.12-18.13,15l-9.66-3.5c3.29-13.4,13.47-20.93,27.92-20.93,15.11,0,25.62,8.8,25.62,25.09v39.54H223.83v-8.14a23.44,23.44,0,0,1-19,9.72C190.73,184,180.62,176.42,180.62,164.07Zm43.21.4V162.1c-3.94-4.59-10.37-8.8-18-8.8-8.28,0-13.66,4.47-13.66,10.77S197.56,175,205.84,175C213.46,175,219.63,170.51,223.83,164.47Z"></path><path class="cls-1" d="M260.17,172.44v10.12H249.26V91.26h10.91v38.23c4.72-6.7,12.21-11.56,23.12-11.56,16.81,0,29.29,14.71,29.29,33.1s-12.48,33.11-29.29,33.11C272.38,184.14,264.89,179.28,260.17,172.44Zm41-21.41c0-14.58-7.62-23.64-20.23-23.64-11.69,0-20.75,10.24-20.75,23.64s9.06,23.65,20.75,23.65C293.53,174.68,301.15,165.48,301.15,151Z"></path><path class="cls-1" d="M321.69,99.41a7.5,7.5,0,1,1,7.49,7.22A7.28,7.28,0,0,1,321.69,99.41Zm2.11,20.1h10.9v63.05H323.8Z"></path><path class="cls-1" d="M355.85,163.78V129H345.47v-9.46h10.38l2.23-18.79h8.67v18.79h25.49V129H366.75V164c0,7,2.24,10.24,7.36,10.24s8.67-4.07,12.22-11.95l8.93,4.2C390.92,177,383,184.14,373.71,184.14,361.89,184.14,355.85,177.7,355.85,163.78Z"></path><path class="cls-1" d="M472.33,119.51h10.9v10.11c4.72-6.83,12.21-11.69,23.11-11.69,16.82,0,29.3,14.84,29.3,33.1s-12.48,33.11-29.29,33.11c-10.91,0-18.4-4.86-23.12-11.56v37.57H472.33ZM524.22,151c0-14.45-7.62-23.64-20.23-23.64-11.69,0-20.75,10.24-20.75,23.64s9.06,23.65,20.75,23.65C516.6,174.68,524.22,165.61,524.22,151Z"></path><path class="cls-1" d="M404.17,164.17c0-11,10.12-20,24.18-20a27.66,27.66,0,0,1,19,7.49v-8.28c0-10-5.52-16-14.84-16-10.25,0-15.77,5.12-18.13,15l-9.66-3.51c3.29-13.4,13.47-20.92,27.92-20.92,15.11,0,25.62,8.8,25.62,25.09v39.54H447.39v-8.14a23.47,23.47,0,0,1-19,9.72C414.29,184.14,404.17,176.52,404.17,164.17Zm43.22.39V162.2c-3.94-4.6-10.38-8.8-18-8.8-8.28,0-13.66,4.46-13.66,10.77s5.38,10.9,13.66,10.9C437,175.07,443.19,170.61,447.39,164.56Z"></path><path class="cls-1" d="M91.35,91.26h11.17v40.9L124.79,124a11.58,11.58,0,0,1,8,0l22.27,8.19V91.26h11.17v91.3H155.06V143l-26.27-9.66L102.52,143v39.59H91.35Z"></path></svg>